<?xml version="1.0" encoding="utf-8"?>
<!-- Generator: Adobe Illustrator 27.5.0, SVG Export Plug-In . SVG Version: 6.00 Build 0)  -->
<svg version="1.1" id="Layer_1" xmlns="http://www.w3.org/2000/svg" xmlns:xlink="http://www.w3.org/1999/xlink" x="0px" y="0px"
	 viewBox="0 0 98.8 48.9" style="enable-background:new 0 0 98.8 48.9;" xml:space="preserve">
<style type="text/css">
	.st0{clip-path:url(#SVGID_00000141455334685119894380000009833131968870254740_);}
	.st1{fill:#030504;}
	.st2{fill:#A8A9A9;}
	.st3{fill:#F16211;}
</style>
<g>
	<defs>
		<rect id="SVGID_1_" width="96.2" height="48.6"/>
	</defs>
	<clipPath id="SVGID_00000062167327436466679470000007616535431592880565_">
		<use xlink:href="#SVGID_1_"  style="overflow:visible;"/>
	</clipPath>
	<g style="clip-path:url(#SVGID_00000062167327436466679470000007616535431592880565_);">
		<path class="st1" d="M80.4,0v33c0,1.1,0.4,2.1,1.2,2.8c0.8,0.7,1.8,1.2,2.8,1.2V4c0-1.1-0.4-2.1-1.2-2.8C82.4,0.4,81.4,0,80.4,0z"
			/>
		<path class="st2" d="M96.2,20.9c0-0.9-0.4-1.7-1-2.3l-5.5-7.6c-0.4,0.3-0.7,0.6-0.9,1c-0.2,0.4-0.4,0.8-0.5,1.3
			c-0.1,0.5-0.1,0.9,0.1,1.4c0.1,0.4,0.3,0.9,0.6,1.2l3.7,5.1l-3.7,5.1c-0.3,0.4-0.5,0.8-0.6,1.2s-0.1,0.9-0.1,1.4
			c0.1,0.5,0.2,0.9,0.5,1.3c0.2,0.4,0.6,0.7,0.9,1l5.5-7.6c0.6-0.6,1-1.5,1-2.3c0,0,0-0.1,0-0.1S96.2,21,96.2,20.9z"/>
		<path class="st1" d="M3.5,21.2L7.3,16c0.3-0.4,0.5-0.8,0.6-1.2c0.1-0.4,0.1-0.9,0.1-1.4c-0.1-0.5-0.2-0.9-0.5-1.3
			c-0.2-0.4-0.6-0.7-0.9-1L1,18.7c-0.6,0.6-1,1.5-1,2.3c0,0,0,0.1,0,0.1c0,0,0,0.1,0,0.1c0,0.9,0.4,1.7,1,2.3l5.5,7.6
			c0.4-0.3,0.7-0.6,0.9-1c0.2-0.4,0.4-0.8,0.5-1.3C8,28.4,7.9,28,7.8,27.5c-0.1-0.4-0.3-0.9-0.6-1.2L3.5,21.2z"/>
		<path class="st1" d="M72.8,21.3c0,2.3-0.8,4.4-2,6.3c-1.3,1.8-3.1,3.3-5.2,4.1c-2.1,0.8-4.4,1-6.6,0.5s-4.2-1.6-5.8-3.2
			c-0.2-0.2-0.6-0.7-1.2-1.4c-1.3-1.9-2-4.1-2-6.4c0-3,1.2-5.9,3.3-8c2.1-2.1,5-3.3,8-3.3c0,0,0.2,0,0.3,0c3,0.1,5.8,1.3,7.9,3.4
			S72.8,18.3,72.8,21.3z M45.5,19.5c-3.4-4.1-7.5-9.2-7.8-9.5c-2.2-2.3-5.1-3.9-8.3-4.5c-3.2-0.6-6.5-0.3-9.4,1
			c-3,1.3-5.5,3.4-7.2,6.2s-2.6,5.9-2.4,9.2c0.1,3.2,1.2,6.3,3.2,8.9c1.9,2.6,4.6,4.5,7.7,5.5c3.1,1,6.4,1.1,9.5,0.2
			c3.1-0.9,5.9-2.7,7.9-5.2l3.6,4.4c0.8,0.9,1.9,1.5,3.1,1.7c1.2,0.1,2.4-0.2,3.4-1c-2.4-3-4.9-6-7.3-9c-1.3-1.6-2.6-3.2-3.9-4.8
			c-0.3,2.5-1.4,4.8-3.2,6.6c-1.8,1.8-4.1,2.9-6.5,3.3c-2.5,0.3-5-0.2-7.2-1.4c-2.2-1.2-3.9-3.2-4.8-5.5c-1-2.3-1.1-4.9-0.5-7.3
			s2.1-4.6,4.1-6.1c2-1.5,4.4-2.3,6.9-2.3c2.5,0,4.9,0.9,6.9,2.4c1.4,1.1,2.6,2.4,3.6,3.8c3.3,4.1,6.7,8.3,10,12.4
			c1.3,1.7,2.7,3.3,4.2,4.8c2.3,2,5.2,3.3,8.2,3.7c3,0.4,6.1,0,8.9-1.3s5.1-3.3,6.8-5.9c1.7-2.6,2.5-5.6,2.5-8.6
			c0-2.1-0.4-4.2-1.2-6.1c-0.8-1.9-2-3.7-3.5-5.2h1.1c0.5,0,1-0.1,1.4-0.3c0.4-0.2,0.9-0.5,1.2-0.8C76.7,8.4,77,8,77.2,7.5
			c0.2-0.4,0.3-0.9,0.3-1.4V5.2H61.2c-3.9,0-7.7,1.5-10.6,4.2C47.7,12,45.9,15.6,45.5,19.5z"/>
		<path class="st3" d="M76.7,42.4c-4,4-9.4,6.2-15,6.2s-11-2.2-15-6.2c0-0.5,0-0.9,0.3-1.4c0.2-0.4,0.5-0.8,0.9-1
			c0.4-0.2,0.9-0.3,1.3-0.3c0.5,0,0.9,0.2,1.3,0.5c3.2,2.6,7.1,4,11.2,4c4.1,0,8-1.4,11.2-4c0.4-0.3,0.8-0.4,1.3-0.5
			c0.5,0,0.9,0.1,1.3,0.3c0.4,0.2,0.7,0.6,1,1C76.7,41.5,76.8,42,76.7,42.4z"/>
	</g>
</g>
</svg>
