<svg xmlns="http://www.w3.org/2000/svg" viewBox="0 0 678.36 169.55"><defs><style>.cls-1{fill:#6459a5;stroke:#6459a5;}.cls-1,.cls-3{stroke-miterlimit:10;}.cls-2{fill:#9bca3b;}.cls-3{fill:#0f2f5b;stroke:#0f2f5b;stroke-width:1.16px;}</style></defs><title>Asset 6</title><g id="Layer_2" data-name="Layer 2"><g id="Layer_1-2" data-name="Layer 1"><path class="cls-1" d="M460.81,74.9c-2,1.75.63-3.39-2.49-2-2.25,1-4.59,1.9-7,2.78s-4.93,1.71-7.46,2.48q4.53,6.74-.44,14.78a16,16,0,0,1-3.58,4.24,30.56,30.56,0,0,1-4.32,3,22,22,0,0,1-4.31,1.9,31.52,31.52,0,0,1-3.73,1,33.78,33.78,0,0,1-6.58.73,19.61,19.61,0,0,1-10.1-2.34,8,8,0,0,1-3.94-4.53,9.53,9.53,0,0,1-.22-2.78,8.35,8.35,0,0,1,1.24-3.66q3.36-5.85,13.16-10.38a57.47,57.47,0,0,1,5.56-2.42c1.95-.73,3.95-1.43,6-2.12-.78-.48-1.56-1-2.34-1.53s-1.61-1-2.49-1.54c-1.85-1.17-3.66-2.34-5.41-3.51a36.8,36.8,0,0,1-4.83-3.8q-5.42-5-5.41-11,0-7.6,2.2-12.43,2-4.83,5.85-6a5.07,5.07,0,0,1,3.87.07,6.92,6.92,0,0,1,3,2.56q2.48,3.81.88,10.24a33.66,33.66,0,0,1-6.58,12,23.91,23.91,0,0,0,4.24,3.59c1.65,1.12,3.41,2.22,5.26,3.29,1.46,1,2.93,1.93,4.39,2.85s2.87,1.93,4.24,3c2.73-.88,5.49-1.8,8.26-2.78a81.64,81.64,0,0,0,7.75-3.14C457.85,66.27,462.86,73.14,460.81,74.9ZM438.43,90A10,10,0,0,0,440,84.58a7.32,7.32,0,0,0-2.2-4.53c-2.73.87-5.38,1.75-8,2.63a61.68,61.68,0,0,0-7.16,2.92,37.72,37.72,0,0,0-5.85,3.51A13.86,13.86,0,0,0,413,93.35a2,2,0,0,0,.73,3.08,12.77,12.77,0,0,0,5.48,1.39,27.47,27.47,0,0,0,7.1-.52Q435.22,95.41,438.43,90ZM418,54.16a2.41,2.41,0,0,0,.15,1,25.51,25.51,0,0,0,3.95-7.68,11.38,11.38,0,0,0,.44-5.19c-.3-1.17-.83-1.36-1.61-.58a8.66,8.66,0,0,0-2.05,4.09A31.34,31.34,0,0,0,418,54.16Z"/><path class="cls-1" d="M420.88,104.7a20.45,20.45,0,0,1-10.58-2.48,9,9,0,0,1-4.38-5.07,10.54,10.54,0,0,1-.26-3.11A9,9,0,0,1,407,90c2.33-4.07,6.91-7.69,13.59-10.79,1.77-.88,3.67-1.7,5.63-2.44,1.35-.51,2.73-1,4.14-1.49l-.7-.48c-.77-.52-1.58-1-2.4-1.48-1.91-1.2-3.72-2.38-5.48-3.55a39.24,39.24,0,0,1-4.95-3.9c-3.79-3.48-5.72-7.41-5.72-11.67a31.33,31.33,0,0,1,2.28-12.83c1.46-3.45,3.64-5.65,6.45-6.52a6.09,6.09,0,0,1,4.54.11,7.91,7.91,0,0,1,3.41,2.91c1.81,2.77,2.14,6.47,1,11a33.91,33.91,0,0,1-6.24,11.7,23.26,23.26,0,0,0,3.51,2.85c1.63,1.11,3.39,2.2,5.2,3.26,1.51,1,3,2,4.43,2.87s2.65,1.77,3.91,2.74q3.84-1.25,7.76-2.62a79.84,79.84,0,0,0,7.66-3.1,2.31,2.31,0,0,1,1-.22c2.35,0,5,3.26,5.85,5.6.82,2.19.07,3.27-.45,3.72a2.08,2.08,0,0,1-1.26.6h-.41l-.41-.35a2,2,0,0,1-.36-1.6c0-.17,0-.44,0-.63a1.69,1.69,0,0,0-.31.11c-2.24,1-4.63,1.92-7.08,2.8-2.07.75-4.19,1.46-6.32,2.13,2.53,4.52,2.17,9.47-1.08,14.73a17.12,17.12,0,0,1-3.79,4.48A31,31,0,0,1,436,101a23.82,23.82,0,0,1-4.5,2,35,35,0,0,1-3.85,1A34.52,34.52,0,0,1,420.88,104.7Zm1.17-68.36a4.77,4.77,0,0,0-1.58.29c-2.32.72-4,2.5-5.29,5.47a29.43,29.43,0,0,0-2.12,12.06c0,3.75,1.67,7.11,5.1,10.26a36,36,0,0,0,4.71,3.71c1.75,1.17,3.55,2.33,5.39,3.5.83.46,1.69,1,2.52,1.55s1.53,1,2.3,1.51l1.74,1.08-1.94.65q-3.06,1-6,2.11a57.75,57.75,0,0,0-5.47,2.37c-6.34,2.94-10.62,6.3-12.76,10a7.61,7.61,0,0,0-1.12,3.22,9,9,0,0,0,.2,2.5,7,7,0,0,0,3.49,3.93,18.64,18.64,0,0,0,9.62,2.22,33.22,33.22,0,0,0,6.39-.71,30,30,0,0,0,3.63-.93A20.59,20.59,0,0,0,435,99.32a29.14,29.14,0,0,0,4.18-2.9,15.37,15.37,0,0,0,3.37-4c3.13-5.08,3.28-9.57.46-13.75l-.72-1.07,1.24-.38c2.49-.77,5-1.6,7.41-2.47s4.76-1.8,7-2.76a2.69,2.69,0,0,1,1.79-.24c-1-1.88-2.77-3.53-3.69-3.53-2.6,1.17-5.24,2.24-8,3.21s-5.55,1.91-8.28,2.79l-.49.16-.4-.32c-1.33-1-2.73-2-4.16-2.94s-2.94-1.88-4.41-2.86c-1.81-1-3.6-2.17-5.27-3.3a25,25,0,0,1-4.41-3.73l-.56-.61.52-.64A32.58,32.58,0,0,0,427,48.34c1-4,.74-7.16-.75-9.46a6,6,0,0,0-2.59-2.2A3.84,3.84,0,0,0,422.05,36.34Zm-1.26,62.49h0c-.56,0-1.11,0-1.66,0a13.59,13.59,0,0,1-5.9-1.52,3.26,3.26,0,0,1-1.59-2,3.21,3.21,0,0,1,.52-2.45,14.84,14.84,0,0,1,4.12-4.51,38.87,38.87,0,0,1,6-3.6,63.76,63.76,0,0,1,7.28-3q3.88-1.32,8-2.64l.58-.18.41.44A8.28,8.28,0,0,1,441,84.52a10.88,10.88,0,0,1-1.73,6c-2.29,3.85-6.58,6.46-12.78,7.77A28.79,28.79,0,0,1,420.79,98.83Zm16.75-17.68q-3.78,1.21-7.36,2.44a59.79,59.79,0,0,0-7.05,2.88,35.79,35.79,0,0,0-5.7,3.41,12.86,12.86,0,0,0-3.62,4,1.5,1.5,0,0,0-.3,1,1.44,1.44,0,0,0,.7.76,11.87,11.87,0,0,0,5.05,1.25,26.31,26.31,0,0,0,6.84-.5c5.64-1.2,9.51-3.51,11.5-6.86a9.13,9.13,0,0,0,1.48-4.86A6.16,6.16,0,0,0,437.54,81.15ZM418,57.05l-.72-1.44a3.23,3.23,0,0,1-.25-1.45,32.46,32.46,0,0,1,.92-8.6A9.53,9.53,0,0,1,420.24,41a2.07,2.07,0,0,1,1.46-.7c.58,0,1.35.31,1.72,1.78a12.16,12.16,0,0,1-.45,5.67,26.38,26.38,0,0,1-4.09,8Zm3.56-14.62a8,8,0,0,0-1.77,3.65,26.23,26.23,0,0,0-.8,6,20,20,0,0,0,2.17-4.85,10.42,10.42,0,0,0,.43-4.73Z"/><path class="cls-1" d="M524.63,58.4a2.62,2.62,0,0,1,1.46,1.68,3.12,3.12,0,0,1-.29,2.27q-5.56,10.83-10.53,19.38a94.71,94.71,0,0,1-9.22,13.53q-7.6,8.47-14,8.48H490.4q-4.09-.58-7.6-5.27a40.18,40.18,0,0,1-4.54-9.79A104.73,104.73,0,0,1,475,76.54q-1.39-6.58-2.56-13.31c-.09-.78-.19-1.51-.29-2.2a15.33,15.33,0,0,0-.44-2.05c-.58,1.37-1.27,3.18-2.05,5.42s-1.56,5-2.34,8.19q-1.76,7.3-2.92,14.62a121.85,121.85,0,0,0-1.46,13.31,2.43,2.43,0,0,1-.81,1.9,3.41,3.41,0,0,1-2,.88,3.1,3.1,0,0,1-2.05-.73,2.83,2.83,0,0,1-1-1.9q-1-9.51-1-30.42t.88-53.53a43.89,43.89,0,0,1,.29-5.27,30.74,30.74,0,0,1,.73-3.95,11.25,11.25,0,0,1,1.1-3,4.9,4.9,0,0,1,2.56-2.27,3.91,3.91,0,0,1,4.68,1.31c1.37,1.57,2.46,4.27,3.29,8.12a53.09,53.09,0,0,1,.95,13.24,105.79,105.79,0,0,1-1.83,15.79A83.5,83.5,0,0,1,461.88,61v9.22l.3-1c.68-2.53,1.33-4.82,2-6.87a51.35,51.35,0,0,1,2-5.41,21.25,21.25,0,0,1,3-4.9,5.39,5.39,0,0,1,3-1.83,7.32,7.32,0,0,1,1.68.29,4,4,0,0,1,2.12,1.9,18.54,18.54,0,0,1,1.17,3.51c.2,1.08.39,2.12.59,3.15s.38,2.07.58,3.14q1.17,6.58,2.49,13t2.92,11.62q3.52,10.4,7.76,11.12c2.43.39,5.85-1.8,10.23-6.58a71.46,71.46,0,0,0,8.78-13q4.68-8.4,10.24-18.79a3,3,0,0,1,1.68-1.39A2.9,2.9,0,0,1,524.63,58.4ZM462.76,16.86q-.3,7.32-.44,13.9t-.14,12.72a70,70,0,0,0,2-10.46,83.76,83.76,0,0,0,.51-8.55,46.37,46.37,0,0,0-.22-7.24,40.93,40.93,0,0,0-.8-4.76l-.44-1.9c-.1.79-.2,1.68-.29,2.71S462.76,15.5,462.76,16.86Z"/><path class="cls-1" d="M492,104.7h-1.6c-3.12-.43-5.89-2.33-8.38-5.65A41.54,41.54,0,0,1,477.35,89,106.45,106.45,0,0,1,474,76.73c-.92-4.39-1.79-8.87-2.56-13.34,0-.33-.08-.63-.12-.93q-.39,1-.81,2.25c-.77,2.23-1.55,5-2.31,8.1-1.16,4.84-2.14,9.74-2.91,14.55a124.2,124.2,0,0,0-1.46,13.21,3.34,3.34,0,0,1-1.11,2.56,4.36,4.36,0,0,1-2.51,1.12h0a4.14,4.14,0,0,1-2.76-.94,3.84,3.84,0,0,1-1.36-2.52c-.68-6.34-1-16.61-1-30.54s.3-31.84.88-53.56a43.76,43.76,0,0,1,.3-5.36A30.35,30.35,0,0,1,457,7.25a11.87,11.87,0,0,1,1.17-3.19,5.88,5.88,0,0,1,3-2.71A4.84,4.84,0,0,1,467,2.92c1.49,1.71,2.64,4.5,3.51,8.55a54.5,54.5,0,0,1,1,13.48,108.16,108.16,0,0,1-1.84,15.93,84.56,84.56,0,0,1-6.79,20.37v2.09c.13-.43.26-.86.39-1.27a52.86,52.86,0,0,1,2-5.51,22.09,22.09,0,0,1,3.16-5.17A6.36,6.36,0,0,1,472,49.27a7.56,7.56,0,0,1,2.1.31,4.79,4.79,0,0,1,2.68,2.31A18.84,18.84,0,0,1,478,55.7c.2,1.11.39,2.16.59,3.18S479,61,479.21,62c.77,4.32,1.6,8.67,2.48,12.92s1.85,8.12,2.9,11.54c2.75,8.11,5.32,10.17,7,10.46,1.37.23,4.1-.55,9.37-6.29A71.13,71.13,0,0,0,509.6,77.9c3.13-5.62,6.57-11.94,10.23-18.78a3.91,3.91,0,0,1,2.23-1.85,3.87,3.87,0,0,1,3,.27,3.56,3.56,0,0,1,2,2.3,4.09,4.09,0,0,1-.37,2.94C523,70,519.4,76.53,516.1,82.21a95.26,95.26,0,0,1-9.32,13.67C501.53,101.74,496.56,104.7,492,104.7ZM471.86,56.11l.74,2.61a15.14,15.14,0,0,1,.47,2.18c.1.69.2,1.42.3,2.21.76,4.4,1.62,8.86,2.54,13.23a103,103,0,0,0,3.26,12,39.36,39.36,0,0,0,4.42,9.57c2.15,2.87,4.49,4.51,7,4.86H492c4,0,8.47-2.75,13.33-8.16a94.42,94.42,0,0,0,9.1-13.37c3.28-5.66,6.82-12.16,10.5-19.34a2.15,2.15,0,0,0,.22-1.58,1.67,1.67,0,0,0-1-1.07,1.93,1.93,0,0,0-1.54-.17,2,2,0,0,0-1.15,1c-3.65,6.82-7.1,13.15-10.23,18.78A73.36,73.36,0,0,1,502.38,92c-4.3,4.67-7.69,7-10.38,7h0a4.2,4.2,0,0,1-.72-.06c-3.25-.56-6-4.41-8.52-11.76-1.07-3.5-2.06-7.44-2.95-11.74s-1.72-8.64-2.49-13c-.2-1.06-.39-2.11-.59-3.13s-.39-2.08-.58-3.16a18.31,18.31,0,0,0-1.1-3.28,3.17,3.17,0,0,0-1.5-1.37,5.87,5.87,0,0,0-1.43-.26,4.58,4.58,0,0,0-2.29,1.51A20.33,20.33,0,0,0,467,57.35a52.29,52.29,0,0,0-1.93,5.28c-.62,2-1.26,4.25-2,6.84l-2.18,7.65L461,60.63a83.22,83.22,0,0,0,6.73-20.1,105.3,105.3,0,0,0,1.81-15.65,52.65,52.65,0,0,0-.93-13c-.79-3.67-1.83-6.25-3.08-7.69a3,3,0,0,0-3.61-1A3.92,3.92,0,0,0,459.88,5a10.2,10.2,0,0,0-1,2.74,29.22,29.22,0,0,0-.72,3.88,41.84,41.84,0,0,0-.28,5.15c-.59,21.73-.88,39.73-.88,53.53s.34,24.06,1,30.32a1.83,1.83,0,0,0,.68,1.26,2.11,2.11,0,0,0,1.43.51,2.48,2.48,0,0,0,1.34-.63,1.5,1.5,0,0,0,.48-1.19,124.78,124.78,0,0,1,1.48-13.46c.78-4.86,1.76-9.81,2.94-14.7.77-3.21,1.57-6,2.37-8.28s1.46-4.06,2.07-5.47ZM461.22,50.9V43.48c0-4.16,0-8.45.14-12.74s.24-9,.44-13.92c0-1.33.05-2.57.15-3.63s.2-1.94.3-2.74l.66-5.37,1.67,7.18a43,43,0,0,1,.81,4.85,48.2,48.2,0,0,1,.23,7.39,83,83,0,0,1-.52,8.62,69.93,69.93,0,0,1-2,10.6Zm2.42-32q-.24,6.21-.36,11.85l0,1.64c.3-3,.45-5.68.45-8A55,55,0,0,0,463.64,18.93Z"/><path class="cls-1" d="M576.56,59a2.82,2.82,0,0,1-.14,4.1A26.77,26.77,0,0,1,571,67a40.54,40.54,0,0,1-6.07,2.7,32.29,32.29,0,0,1-6.22,1.54,41.86,41.86,0,0,1-5.85.44V72a50.76,50.76,0,0,1-1.17,10.9,43.09,43.09,0,0,1-3.22,9.58,23.24,23.24,0,0,1-6.29,8.11,12.55,12.55,0,0,1-7.9,2.86q-9.06,0-14.18-8.78a29.18,29.18,0,0,1-2.93-7.61,37.92,37.92,0,0,1-1-8.92,39.73,39.73,0,0,1,1.31-9.8,33.62,33.62,0,0,1,3.37-8.62,2.64,2.64,0,0,1,1.68-1.47,3.18,3.18,0,0,1,2.27.3,3.09,3.09,0,0,1,1.46,1.82,3.17,3.17,0,0,1-.29,2.27,24.71,24.71,0,0,0-2.71,6.8,36.16,36.16,0,0,0-1,7.9,37.38,37.38,0,0,0,.66,7.82,20.51,20.51,0,0,0,2.34,6.58c2.33,3.91,5.36,5.85,9.06,5.85a5.84,5.84,0,0,0,3-.8,12.4,12.4,0,0,0,2.56-2,13.53,13.53,0,0,0,2-2.49c.53-.88,1-1.66,1.39-2.34A41.53,41.53,0,0,0,546,81.43,44.76,44.76,0,0,0,547,72v-.88a70.75,70.75,0,0,1-7.68-1.46,21.36,21.36,0,0,1-5.19-1.9c-2.73-1.47-4.46-3.17-5.2-5.12a8.38,8.38,0,0,1-.36-5.41,8.48,8.48,0,0,1,3.51-5.12,12.26,12.26,0,0,1,6.58-1.9,11.19,11.19,0,0,1,6.36,1.9,15.2,15.2,0,0,1,4.76,5.26,24.3,24.3,0,0,1,2.63,8.34c.19,0,.32,0,.36.07a.31.31,0,0,0,.22.08,29.3,29.3,0,0,0,10.17-1.69,25,25,0,0,0,9.29-5.34,2.65,2.65,0,0,1,2.12-.8A2.7,2.7,0,0,1,576.56,59Zm-39.63,3.66a20.36,20.36,0,0,0,3.66,1.24q2.48.66,5.85,1.25a19,19,0,0,0-1.76-5q-2.19-4.09-6-4.1a5.22,5.22,0,0,0-3.14.81,3.44,3.44,0,0,0-1.39,1.82C533.86,60.06,534.78,61.37,536.93,62.64Z"/><path class="cls-1" d="M534.3,104.41c-6.39,0-11.44-3.12-15-9.26a30.53,30.53,0,0,1-3-7.86,39.06,39.06,0,0,1-1-9.15,40.64,40.64,0,0,1,1.34-10A35.14,35.14,0,0,1,520,59.23a3.48,3.48,0,0,1,2.26-1.9,4.08,4.08,0,0,1,2.94.36,3.91,3.91,0,0,1,1.61,5.38,23.85,23.85,0,0,0-2.64,6.6,34.69,34.69,0,0,0-1,7.69,36.65,36.65,0,0,0,.64,7.62,19.84,19.84,0,0,0,2.23,6.29c2.16,3.61,4.86,5.37,8.24,5.37a4.89,4.89,0,0,0,2.52-.68,11.39,11.39,0,0,0,2.35-1.82A12.36,12.36,0,0,0,541,91.83c.53-.87,1-1.64,1.37-2.31a40.55,40.55,0,0,0,2.68-8.29,44.27,44.27,0,0,0,1-9.23v0a66.66,66.66,0,0,1-7-1.36,22.24,22.24,0,0,1-5.44-2c-2.89-1.55-4.79-3.45-5.6-5.61a9.84,9.84,0,0,1,3.46-11.64,13.45,13.45,0,0,1,7.16-2.09,12.18,12.18,0,0,1,6.89,2.06,16,16,0,0,1,5.06,5.59,24.58,24.58,0,0,1,2.64,8h.44a29.27,29.27,0,0,0,9.17-1.64,24.52,24.52,0,0,0,8.94-5.14,3.56,3.56,0,0,1,2.58-1.06h.24a3.57,3.57,0,0,1,2.66,1.29,3.52,3.52,0,0,1,1,2.79A3.59,3.59,0,0,1,577,63.82a27,27,0,0,1-5.56,4.05,40.55,40.55,0,0,1-6.22,2.77,33.78,33.78,0,0,1-6.4,1.58,42.59,42.59,0,0,1-5,.44,51.94,51.94,0,0,1-1.18,10.44,44.63,44.63,0,0,1-3.3,9.79,24.18,24.18,0,0,1-6.56,8.46A13.56,13.56,0,0,1,534.3,104.41Zm-11-45.3a2,2,0,0,0-.48.07,1.62,1.62,0,0,0-1.07,1,33.77,33.77,0,0,0-3.3,8.44,38.81,38.81,0,0,0-1.28,9.56,37.42,37.42,0,0,0,1,8.7,28.61,28.61,0,0,0,2.83,7.36c3.25,5.57,7.62,8.29,13.35,8.29a11.74,11.74,0,0,0,7.31-2.65,22.4,22.4,0,0,0,6-7.79,42.3,42.3,0,0,0,3.14-9.36A50.22,50.22,0,0,0,551.91,72V70.75h1a39.67,39.67,0,0,0,5.71-.43,31.51,31.51,0,0,0,6-1.49,39.59,39.59,0,0,0,5.92-2.64,25.66,25.66,0,0,0,5.22-3.81,1.75,1.75,0,0,0,.65-1.33,1.71,1.71,0,0,0-.53-1.39,1.78,1.78,0,0,0-1.35-.67h0a1.74,1.74,0,0,0-1.36.52,26.35,26.35,0,0,1-9.67,5.58A30.54,30.54,0,0,1,553,66.82h0a1.1,1.1,0,0,1-.58-.15h-.74l-.18-.82a23.39,23.39,0,0,0-2.52-8,14.22,14.22,0,0,0-4.45-4.93,11,11,0,0,0-11.91,0,7.4,7.4,0,0,0-3.07,4.49,7.55,7.55,0,0,0,.32,4.88c.65,1.72,2.24,3.27,4.75,4.61a20.12,20.12,0,0,0,5,1.82,66.46,66.46,0,0,0,7.57,1.44l.83.11V72a45.59,45.59,0,0,1-1.05,9.64,42,42,0,0,1-2.84,8.75c-.43.76-.9,1.55-1.44,2.44a14.65,14.65,0,0,1-2.12,2.66,13.7,13.7,0,0,1-2.75,2.13,6.91,6.91,0,0,1-3.49.93c-4,0-7.38-2.12-9.89-6.31a22.13,22.13,0,0,1-2.46-6.9,38.44,38.44,0,0,1-.67-8,36.63,36.63,0,0,1,1.05-8.11,25.79,25.79,0,0,1,2.81-7.07,2,2,0,0,0-.85-2.78A2.44,2.44,0,0,0,523.25,59.11Zm24.42,7.2-1.4-.24c-2.24-.38-4.23-.81-5.93-1.26a20.66,20.66,0,0,1-3.84-1.31c-2.59-1.53-3.68-3.2-3.29-5a4.44,4.44,0,0,1,1.76-2.4,6.19,6.19,0,0,1,3.71-1c2.91,0,5.21,1.55,6.85,4.6a20,20,0,0,1,1.84,5.23Zm-9-9.29a4.36,4.36,0,0,0-2.57.62,2.59,2.59,0,0,0-1,1.31c-.18.85.61,1.84,2.34,2.86A20.45,20.45,0,0,0,540.83,63c1.27.33,2.72.66,4.32,1a17.41,17.41,0,0,0-1.32-3.32C542.54,58.19,540.85,57,538.68,57Z"/><path class="cls-1" d="M623.71,58.4a2.8,2.8,0,0,1,1.32,4Q620.79,71,616.18,79A95.09,95.09,0,0,1,607.33,92q-9.51,11.42-17.11,11.41a8.34,8.34,0,0,1-2.63-.44q-9.51-2.34-12.73-23-2.62-17.11-1.31-47.68L563,33.68a2.84,2.84,0,0,1-2-.73,3,3,0,0,1-.95-1.9,2.66,2.66,0,0,1,.66-2.12,3.06,3.06,0,0,1,2-1.1l11.12-1.31c.1-1.66.19-3.37.29-5.12s.24-3.51.44-5.27A43.93,43.93,0,0,1,575.5,9a19.25,19.25,0,0,1,1.42-4.24,6.37,6.37,0,0,1,1.64-2.2,7.05,7.05,0,0,1,1.57-1,4,4,0,0,1,2-.14,5.23,5.23,0,0,1,3,1.9q2.09,2.63,3.27,8.34a51.75,51.75,0,0,1,.89,12.72l10.09-1.32a2.73,2.73,0,0,1,2.13.66,3,3,0,0,1,1.09,2,2.64,2.64,0,0,1-.66,2.12A3,3,0,0,1,600,29L588.9,30.47A95.52,95.52,0,0,1,586,44.36a80.71,80.71,0,0,1-6.9,16.53c-.1,0-.15,0-.15.14q.28,5.13.59,9.66a67.37,67.37,0,0,0,1,8.33,61.68,61.68,0,0,0,2,9,33,33,0,0,0,2.23,5.48,9.35,9.35,0,0,0,2.23,2.93,4.47,4.47,0,0,0,2,1q2.49.73,6-1.68a42.18,42.18,0,0,0,7.75-7.39,86.6,86.6,0,0,0,8.56-12.57q4.46-7.75,8.4-16.09a2.81,2.81,0,0,1,4-1.32ZM579.4,31.63c-.29,5.47-.44,10.53-.44,15.22a69.06,69.06,0,0,0,2.28-7.76c.61-2.63,1.11-5.26,1.52-7.9Zm.87-15.06q-.28,2.49-.36,4.68c0,1.46-.12,2.92-.22,4.39l3.66-.44a3.23,3.23,0,0,1,.07-.66,4,4,0,0,0,.07-.81,39.33,39.33,0,0,0-.44-9.43,31,31,0,0,0-1.46-5.48,23,23,0,0,0-.66,2.85C580.71,12.89,580.49,14.52,580.27,16.57Z"/><path class="cls-1" d="M590.22,104.41a9.44,9.44,0,0,1-2.94-.49c-6.74-1.65-11.13-9.42-13.36-23.73-1.73-11.21-2.19-26.93-1.38-46.73l-9.41,1.17a3.86,3.86,0,0,1-2.73-1,3.92,3.92,0,0,1-1.26-2.49,3.61,3.61,0,0,1,.87-2.86,4,4,0,0,1,2.59-1.43l10.33-1.22.24-4.31c.1-1.77.25-3.56.44-5.32a45,45,0,0,1,.95-7.21,20.1,20.1,0,0,1,1.51-4.46A7.34,7.34,0,0,1,578,1.84,8.11,8.11,0,0,1,579.76.77a4.7,4.7,0,0,1,2.47-.22,6.08,6.08,0,0,1,3.65,2.2c1.54,2,2.68,4.81,3.51,8.8a52.84,52.84,0,0,1,1,11.82l9-1.17a3.52,3.52,0,0,1,2.86.88,3.86,3.86,0,0,1,1.43,2.59,3.62,3.62,0,0,1-.87,2.85,4,4,0,0,1-2.6,1.44l-10.37,1.36a99.12,99.12,0,0,1-2.83,13.3,81.68,81.68,0,0,1-7,16.72l0,0c.19,3.23.39,6.33.58,9.25a64.28,64.28,0,0,0,1,8.22,61.81,61.81,0,0,0,2,8.88,33.35,33.35,0,0,0,2.16,5.33,8.43,8.43,0,0,0,2,2.62,3.55,3.55,0,0,0,1.56.83,3.64,3.64,0,0,0,1.06.16h0A7.88,7.88,0,0,0,594.5,95a41.57,41.57,0,0,0,7.57-7.22,85.57,85.57,0,0,0,8.45-12.43c2.94-5.11,5.76-10.5,8.38-16a4,4,0,0,1,7.26.47,3.87,3.87,0,0,1-.27,3c-2.82,5.72-5.81,11.33-8.88,16.65a98,98,0,0,1-8.94,13.22C601.48,100.56,595.64,104.41,590.22,104.41ZM574.56,31.27l0,1.14c-.88,20.21-.44,36.19,1.3,47.49,2.07,13.27,6.11,20.73,12,22.18a7.56,7.56,0,0,0,2.4.41c4.75,0,10.26-3.72,16.38-11.06a96.7,96.7,0,0,0,8.75-13c3-5.28,6-10.85,8.82-16.55a2.05,2.05,0,0,0-2.42-2.83,2,2,0,0,0-1.13,1c-2.63,5.56-5.47,11-8.43,16.14A87.09,87.09,0,0,1,603.53,89a43.18,43.18,0,0,1-7.94,7.56,9.6,9.6,0,0,1-5.33,2h0a5.19,5.19,0,0,1-1.48-.21,5.4,5.4,0,0,1-2.33-1.19A10.28,10.28,0,0,1,584,94a34.15,34.15,0,0,1-2.3-5.65,63.17,63.17,0,0,1-2-9.14,68.59,68.59,0,0,1-1-8.42q-.29-4.55-.59-9.66a1.17,1.17,0,0,1,.4-.92,78.81,78.81,0,0,0,6.68-16.07A95.59,95.59,0,0,0,588,30.35l.09-.74,11.85-1.56a2,2,0,0,0,1.37-.77,1.72,1.72,0,0,0,.44-1.38,2.09,2.09,0,0,0-.77-1.36,1.73,1.73,0,0,0-1.38-.44l-11.22,1.47,0-1.14a51.32,51.32,0,0,0-.87-12.49c-.76-3.64-1.8-6.31-3.09-7.94A4.31,4.31,0,0,0,582,2.46a4,4,0,0,0-1.48,0,6.52,6.52,0,0,0-1.41.85,5.56,5.56,0,0,0-1.36,1.87,18.19,18.19,0,0,0-1.35,4,43.52,43.52,0,0,0-.9,6.93c-.2,1.77-.34,3.53-.44,5.26l-.34,5.92-11.92,1.41a2.07,2.07,0,0,0-1.35.77,1.72,1.72,0,0,0-.44,1.38,2,2,0,0,0,.64,1.3,1.89,1.89,0,0,0,1.33.49ZM578,52.35v-5.5c0-4.65.15-9.79.44-15.27l0-.8,5.42-.7-.19,1.26c-.41,2.65-.93,5.34-1.53,8a69,69,0,0,1-2.32,7.86Zm2.31-19.87q-.19,3.93-.3,7.61c.1-.41.2-.81.29-1.21.5-2.17.94-4.38,1.31-6.57Zm-1.65-5.75.07-1.15c.1-1.46.17-2.91.22-4.36s.18-3.09.37-4.76c.22-2.05.45-3.72.67-5a24.8,24.8,0,0,1,.69-3l.8-2.47,1,2.4A31.56,31.56,0,0,1,584,14.12a40.68,40.68,0,0,1,.46,9.67,4.91,4.91,0,0,1-.09.94,2,2,0,0,0-.05.47v.85Zm3.07-14c-.16,1.07-.33,2.4-.5,4s-.32,3.18-.36,4.61q-.06,1.63-.15,3.27l1.76-.21a2.8,2.8,0,0,0,0-.6,39.22,39.22,0,0,0-.42-9.25C582,13.85,581.86,13.25,581.73,12.7Z"/><path class="cls-1" d="M674.82,58.84a3,3,0,0,1,1.25,1.9,2.81,2.81,0,0,1-.51,2.19,36.9,36.9,0,0,1-5.12,5.27,31.23,31.23,0,0,1-7.76,4.68c-2.24,1-4.58,1.9-7,2.78s-4.92,1.7-7.46,2.48q4.54,6.74-.43,14.78a15.89,15.89,0,0,1-3.59,4.24,29.92,29.92,0,0,1-4.31,3,21.82,21.82,0,0,1-4.32,1.9,33,33,0,0,1-3.72,1,33.79,33.79,0,0,1-6.59.73,19.57,19.57,0,0,1-10.09-2.34,8,8,0,0,1-3.95-4.54,9.78,9.78,0,0,1-.22-2.77,8.38,8.38,0,0,1,1.25-3.66q3.36-5.85,13.16-10.38A57.47,57.47,0,0,1,631,77.63c1.94-.73,3.94-1.43,6-2.12-.78-.48-1.56-1-2.34-1.53s-1.6-1-2.48-1.54q-2.79-1.75-5.41-3.51a37.66,37.66,0,0,1-4.83-3.8q-5.42-5-5.41-11,0-7.6,2.19-12.43c1.36-3.22,3.32-5.22,5.85-6a5.1,5.1,0,0,1,3.88.07,7,7,0,0,1,3,2.56q2.48,3.81.87,10.24a33.35,33.35,0,0,1-6.58,12,23.91,23.91,0,0,0,4.24,3.59c1.66,1.12,3.41,2.22,5.27,3.29,1.46,1,2.92,1.93,4.38,2.85s2.88,1.93,4.25,3c2.73-.88,5.48-1.8,8.26-2.78a81.64,81.64,0,0,0,7.75-3.14,45.48,45.48,0,0,0,6.44-3.66,18.82,18.82,0,0,0,4.46-4.17,2.58,2.58,0,0,1,1.9-1.32A3,3,0,0,1,674.82,58.84ZM642.79,90a9.94,9.94,0,0,0,1.61-5.41,7.35,7.35,0,0,0-2.19-4.53q-4.1,1.31-8,2.63a61.14,61.14,0,0,0-7.17,2.92,38.2,38.2,0,0,0-5.85,3.51,13.86,13.86,0,0,0-3.88,4.24,2,2,0,0,0,.74,3.08,12.73,12.73,0,0,0,5.48,1.39,27.36,27.36,0,0,0,7.09-.52Q639.58,95.41,642.79,90ZM622.32,54.16a2.63,2.63,0,0,0,.14,1,25.28,25.28,0,0,0,3.95-7.68,11.24,11.24,0,0,0,.44-5.19c-.29-1.17-.83-1.36-1.61-.58a8.75,8.75,0,0,0-2,4.09A31.82,31.82,0,0,0,622.32,54.16Z"/><path class="cls-1" d="M625.24,104.7a20.5,20.5,0,0,1-10.58-2.48,9,9,0,0,1-4.37-5.07A10.54,10.54,0,0,1,610,94,9.12,9.12,0,0,1,611.39,90c2.34-4.07,6.91-7.69,13.6-10.79,1.77-.88,3.67-1.7,5.62-2.44,1.36-.51,2.74-1,4.15-1.49-.24-.16-.47-.31-.7-.48-.78-.52-1.59-1-2.41-1.48-1.91-1.2-3.71-2.38-5.48-3.55a40,40,0,0,1-4.95-3.9c-3.79-3.48-5.71-7.41-5.71-11.67a31.29,31.29,0,0,1,2.28-12.83c1.46-3.45,3.63-5.65,6.44-6.52a6.09,6.09,0,0,1,4.54.11,7.88,7.88,0,0,1,3.42,2.91c1.8,2.77,2.14,6.47,1,11A34.16,34.16,0,0,1,627,60.53a23.16,23.16,0,0,0,3.5,2.85c1.64,1.11,3.39,2.2,5.21,3.26,1.51,1,3,2,4.42,2.87s2.65,1.77,3.92,2.74c2.56-.83,5.15-1.7,7.75-2.62a81.12,81.12,0,0,0,7.67-3.1A43.94,43.94,0,0,0,665.72,63,17.71,17.71,0,0,0,670,59a3.47,3.47,0,0,1,2.55-1.7,4,4,0,0,1,2.87.76,3.89,3.89,0,0,1,1.63,2.5,3.69,3.69,0,0,1-.67,2.93,38.27,38.27,0,0,1-5.28,5.44,32,32,0,0,1-8,4.83c-2.25,1-4.63,1.92-7.08,2.8-2.08.75-4.2,1.46-6.32,2.13,2.53,4.52,2.17,9.47-1.08,14.73a17,17,0,0,1-3.8,4.48,31,31,0,0,1-4.45,3.09,23.54,23.54,0,0,1-4.5,2,39.33,39.33,0,0,1-10.6,1.72Zm1.17-68.36a4.76,4.76,0,0,0-1.57.29c-2.32.72-4,2.5-5.3,5.47a29.57,29.57,0,0,0-2.11,12.06c0,3.75,1.66,7.11,5.1,10.26a36,36,0,0,0,4.71,3.71c1.75,1.17,3.54,2.33,5.39,3.5.83.46,1.69,1,2.52,1.55s1.53,1,2.3,1.51l1.73,1.08-1.93.65q-3.06,1-6,2.11a58.7,58.7,0,0,0-5.46,2.37c-6.34,2.94-10.63,6.3-12.76,10a7.48,7.48,0,0,0-1.12,3.22,9,9,0,0,0,.19,2.5,7,7,0,0,0,3.5,3.93,18.62,18.62,0,0,0,9.61,2.22,33.4,33.4,0,0,0,6.4-.71,30.44,30.44,0,0,0,3.63-.93,20.77,20.77,0,0,0,4.12-1.82,28.84,28.84,0,0,0,4.18-2.9,15.17,15.17,0,0,0,3.37-4c3.14-5.08,3.29-9.57.47-13.75l-.72-1.07,1.23-.38c2.49-.77,5-1.6,7.42-2.47s4.75-1.8,7-2.76a29.72,29.72,0,0,0,7.51-4.53,36.11,36.11,0,0,0,5-5.13,1.76,1.76,0,0,0,.32-1.42,2,2,0,0,0-.86-1.3,2,2,0,0,0-1.51-.41,1.56,1.56,0,0,0-1.2.87,19.92,19.92,0,0,1-4.73,4.45,45,45,0,0,1-6.58,3.73,81,81,0,0,1-7.84,3.18q-4.18,1.47-8.29,2.79l-.48.16-.4-.31c-1.34-1-2.74-2-4.17-3s-2.94-1.88-4.4-2.86c-1.81-1-3.6-2.17-5.27-3.3A24.62,24.62,0,0,1,625,61.24l-.56-.61.52-.64a32.89,32.89,0,0,0,6.4-11.65c1-4,.74-7.16-.76-9.45A5.85,5.85,0,0,0,628,36.68,3.85,3.85,0,0,0,626.41,36.34Zm-1.25,62.49h0c-.56,0-1.11,0-1.66,0a13.51,13.51,0,0,1-5.9-1.52,2.92,2.92,0,0,1-1.07-4.41,14.71,14.71,0,0,1,4.12-4.51,38.87,38.87,0,0,1,6-3.6,63.76,63.76,0,0,1,7.28-3q3.89-1.32,8-2.64l.58-.18.42.44a8.33,8.33,0,0,1,2.45,5.13,11.05,11.05,0,0,1-1.73,6c-2.29,3.85-6.59,6.46-12.78,7.77A28.87,28.87,0,0,1,625.16,98.83ZM641.9,81.15c-2.51.81-5,1.62-7.35,2.44a60,60,0,0,0-7.06,2.88,36.25,36.25,0,0,0-5.7,3.41,13,13,0,0,0-3.61,4,1.5,1.5,0,0,0-.3,1,1.44,1.44,0,0,0,.7.76,11.82,11.82,0,0,0,5,1.25,26.31,26.31,0,0,0,6.84-.5c5.64-1.2,9.52-3.51,11.51-6.86a9,9,0,0,0,1.47-4.86A6.09,6.09,0,0,0,641.9,81.15Zm-19.57-24.1-.72-1.44a3.09,3.09,0,0,1-.25-1.45,32.94,32.94,0,0,1,.91-8.6A9.61,9.61,0,0,1,624.61,41a2.07,2.07,0,0,1,1.45-.7c.58,0,1.36.31,1.72,1.78a12,12,0,0,1-.44,5.67,26.62,26.62,0,0,1-4.09,8Zm3.56-14.62c-.48.44-1.12,1.39-1.77,3.65a26.23,26.23,0,0,0-.8,6,19.9,19.9,0,0,0,2.16-4.85,10.46,10.46,0,0,0,.44-4.73Z"/><path class="cls-2" d="M134.2,67c0-10.43-8.49-17.46-18.93-17.46s-18.8,7-18.8,17.46v33.49c0,.24-.12.36-.12.48s-.12.37-.24.49a2.8,2.8,0,0,1-1.82,1.45.42.42,0,0,1-.25.12h-.6a3.32,3.32,0,0,1-2.31-1,3.5,3.5,0,0,1-.48-1,2.67,2.67,0,0,1-.12-1V21.05a3,3,0,0,1,2.91-2.91,3,3,0,0,1,3,2.91v31.3a24.55,24.55,0,0,1,18.8-8.74c13.71,0,24.87,9.71,24.87,23.41v33.12a3,3,0,0,1-5.94,0V67Z"/><path class="cls-2" d="M137.11,104a3.92,3.92,0,0,1-3.87-3.87V67c0-9.56-7.55-16.5-18-16.5-10.17,0-17.84,7.09-17.84,16.5v33.49a1.73,1.73,0,0,1-.12.62v.09l-.1.2a2,2,0,0,1-.3.59,3.68,3.68,0,0,1-2.18,1.79,1.22,1.22,0,0,1-.68.21h-.61a4.24,4.24,0,0,1-3-1.25,4.76,4.76,0,0,1-.71-1.34,3.67,3.67,0,0,1-.17-1.28V21.05a3.93,3.93,0,0,1,7.86,0V49.9a25.49,25.49,0,0,1,17.84-7.25C130,42.65,141.1,53.13,141.1,67v33.12A3.93,3.93,0,0,1,137.11,104ZM115.27,48.6c11.34,0,19.89,7.92,19.89,18.42v33.12a2,2,0,0,0,4,0V67c0-12.8-10.27-22.45-23.91-22.45A23.53,23.53,0,0,0,97.21,53l-1.7,2V21.05a2,2,0,0,0-4,0v79.09a1.86,1.86,0,0,0,.07.67,2.69,2.69,0,0,0,.37.74,2.39,2.39,0,0,0,1.51.54L94,102a1.83,1.83,0,0,0,1.22-1l.26-.59V67C95.51,56.52,104,48.6,115.27,48.6Z"/><path class="cls-2" d="M150.94,73.45c0-16.49,12.86-29.84,28.88-29.84,15.28,0,27.41,12.13,28.63,27.66v.49a2.75,2.75,0,0,1-2.92,2.66H156.77c.61,13,10.79,22.81,23,22.81A22.35,22.35,0,0,0,199,86.43a2.85,2.85,0,0,1,3.89-1,3.11,3.11,0,0,1,1,4.13,28.32,28.32,0,0,1-24,13.46C163.8,103.05,150.94,89.71,150.94,73.45Zm6.19-4.73h45a22.94,22.94,0,0,0-22.32-19.28C168.66,49.43,159.32,57.44,157.13,68.72Z"/><path class="cls-2" d="M179.82,104C163.37,104,150,90.31,150,73.45s13.39-30.8,29.84-30.8c15.59,0,28.31,12.27,29.58,28.54v.57a3.72,3.72,0,0,1-3.88,3.62H157.79c1,11.79,10.54,20.89,22,20.89a21.47,21.47,0,0,0,18.34-10.33,3.72,3.72,0,0,1,3.24-1.84,3.8,3.8,0,0,1,2,.54,4.07,4.07,0,0,1,1.3,5.43A29.22,29.22,0,0,1,179.82,104Zm0-59.44c-15.39,0-27.92,13-27.92,28.88s12.53,28.64,27.92,28.64a27.3,27.3,0,0,0,23.2-13,2.14,2.14,0,0,0-.72-2.84,2,2,0,0,0-.9-.22,1.81,1.81,0,0,0-1.59.9,23.39,23.39,0,0,1-20,11.27c-12.84,0-23.39-10.42-24-23.72l-.05-1h49.77a1.82,1.82,0,0,0,2-1.7v-.37C206.3,56.08,194.4,44.57,179.82,44.57Zm23.46,25.11H156l.22-1.14c2.29-11.81,12-20.06,23.63-20.06a23.83,23.83,0,0,1,23.26,20.08Zm-45-1.92H201a21.87,21.87,0,0,0-21.15-17.37C169.5,50.39,160.82,57.48,158.32,67.76Z"/><path class="cls-2" d="M271.66,46.52v53.62a2.92,2.92,0,0,1-5.83,0V91.28a27.73,27.73,0,0,1-22.32,11.77c-15.65,0-28.14-13.46-28.14-29.72s12.49-29.72,28.14-29.72a27.61,27.61,0,0,1,22.32,11.65V46.52a2.92,2.92,0,0,1,5.83,0Zm-5.83,26.81c0-13.34-10.07-24-22.32-24s-22.32,10.68-22.32,24,10.19,23.9,22.32,23.9S265.83,86.68,265.83,73.33Z"/><path class="cls-2" d="M268.75,104a3.93,3.93,0,0,1-3.88-3.87V94a28.59,28.59,0,0,1-21.36,10c-16,0-29.1-13.76-29.1-30.68s13.05-30.68,29.1-30.68a28.56,28.56,0,0,1,21.36,9.87v-6a3.88,3.88,0,0,1,7.75,0v53.62A3.93,3.93,0,0,1,268.75,104Zm-2-15.69v11.82a2,2,0,0,0,3.91,0V46.52a2,2,0,0,0-3.91,0v11.7l-1.73-2.4a26.83,26.83,0,0,0-21.55-11.25c-15,0-27.18,12.91-27.18,28.77s12.19,28.76,27.18,28.76a26.9,26.9,0,0,0,21.55-11.38Zm-23.28,9.87c-12.84,0-23.28-11.15-23.28-24.86s10.44-25,23.28-25,23.28,11.2,23.28,25S256.35,98.19,243.51,98.19Zm0-47.92c-11.78,0-21.36,10.35-21.36,23.06s9.58,22.94,21.36,22.94S264.87,86,264.87,73.33,255.29,50.27,243.51,50.27Z"/><path class="cls-2" d="M289.73,21.05a3,3,0,0,1,5.95,0v79.09a3,3,0,0,1-5.95,0Z"/><path class="cls-2" d="M292.64,104a3.92,3.92,0,0,1-3.86-3.87V21.05a3.93,3.93,0,0,1,7.86,0v79.09A3.93,3.93,0,0,1,292.64,104Zm0-84.91a2,2,0,0,0-1.94,1.95v79.09a2,2,0,0,0,4,0V21.05A2,2,0,0,0,292.64,19.1Z"/><path class="cls-2" d="M330.13,46.52a3.13,3.13,0,0,1-2.91,2.91h-7.64V92.74c0,2.91,2.91,4.37,4.37,4.37a3.37,3.37,0,0,1,3,3,3.25,3.25,0,0,1-3,2.91,10.11,10.11,0,0,1-10.44-10.31V49.43h-7.4c-2.91,0-2.91-1.45-2.91-2.91s0-2.91,2.91-2.91h7.4V21.53a3.14,3.14,0,0,1,2.91-2.91,3.28,3.28,0,0,1,3.16,2.91V43.61h7.64A3.14,3.14,0,0,1,330.13,46.52Z"/><path class="cls-2" d="M324,104a11.08,11.08,0,0,1-11.4-11.27V50.39h-6.44c-3.87,0-3.87-2.42-3.87-3.87s0-3.87,3.87-3.87h6.44V21.54a4.08,4.08,0,0,1,3.87-3.88,4.22,4.22,0,0,1,4.12,3.88V42.65h6.68a3.87,3.87,0,0,1,0,7.74h-6.68V92.74c0,2.36,2.47,3.41,3.41,3.41a4.32,4.32,0,0,1,4,4A4.2,4.2,0,0,1,324,104ZM306.11,44.57c-1.95,0-1.95.49-1.95,2s0,2,1.95,2h8.36V92.74a9.11,9.11,0,0,0,9.48,9.35,2.32,2.32,0,0,0,2.07-2A2.42,2.42,0,0,0,324,98.07c-1.92,0-5.33-1.78-5.33-5.33V48.48h8.6a2,2,0,0,0,0-3.91h-8.6v-23a2.33,2.33,0,0,0-2.2-2,2.17,2.17,0,0,0-1.95,2v23Z"/><path class="cls-2" d="M389.46,67c0-10.43-8.49-17.46-18.93-17.46s-18.8,7-18.8,17.46v33.49c0,.24-.12.36-.12.48s-.12.37-.24.49a2.82,2.82,0,0,1-1.83,1.45.42.42,0,0,1-.24.12h-.61a3.29,3.29,0,0,1-2.3-1,3.54,3.54,0,0,1-.49-1,2.67,2.67,0,0,1-.12-1V21.05a3,3,0,0,1,6,0v31.3a24.54,24.54,0,0,1,18.8-8.74c13.71,0,24.87,9.71,24.87,23.41v33.12a3,3,0,0,1-3,2.91,3,3,0,0,1-2.91-2.91V67Z"/><path class="cls-2" d="M392.37,104a3.92,3.92,0,0,1-3.87-3.87V67c0-9.56-7.56-16.5-18-16.5-10.17,0-17.84,7.09-17.84,16.5v33.49a1.73,1.73,0,0,1-.12.62v.09l-.1.2a2,2,0,0,1-.3.59A3.68,3.68,0,0,1,350,103.8a1.23,1.23,0,0,1-.69.21h-.6a4.26,4.26,0,0,1-3-1.25,4.51,4.51,0,0,1-.71-1.34,3.67,3.67,0,0,1-.17-1.28V21.05a3.93,3.93,0,0,1,7.86,0V49.9a25.48,25.48,0,0,1,17.84-7.25c14.73,0,25.83,10.48,25.83,24.37v33.12A3.93,3.93,0,0,1,392.37,104ZM370.53,48.6c11.34,0,19.89,7.92,19.89,18.42v33.12a2,2,0,0,0,4,0V67c0-12.8-10.28-22.45-23.91-22.45A23.53,23.53,0,0,0,352.47,53l-1.7,2V21.05a2,2,0,0,0-4,0v79.09a1.86,1.86,0,0,0,.07.67,2.44,2.44,0,0,0,.37.74,2.39,2.39,0,0,0,1.51.54l.58-.08a1.83,1.83,0,0,0,1.23-1l.26-.59V67C350.77,56.52,359.27,48.6,370.53,48.6Z"/><circle class="cls-1" cx="11.44" cy="39.15" r="1.78"/><circle class="cls-1" cx="12.79" cy="24.24" r="4.46"/><circle class="cls-1" cx="23.2" cy="33.67" r="1.43"/><path class="cls-1" d="M34.71,22.85a4.1,4.1,0,1,1-4.1,4.1A4.09,4.09,0,0,1,34.71,22.85Z"/><path class="cls-2" d="M47.2,12.42s.08.17.2.49L47.88,14c.32.73.78,1.8,1.31,3.19s1.16,3.08,1.82,5,1.31,4.22,2,6.73a52.39,52.39,0,0,1,1.27,8.39,34.68,34.68,0,0,1-.89,9.72,37.58,37.58,0,0,1-4.08,9.62A65.48,65.48,0,0,1,43,65.09c-.85,1-1.71,2-2.57,3,.29.19.6.39.91.62a18.28,18.28,0,0,1,2.21,1.9l1.12,1.19,1.05,1.38a23.45,23.45,0,0,1,1.9,3.13,25,25,0,0,1,1.45,3.54c.19.62.41,1.23.58,1.86l.41,1.89a29.23,29.23,0,0,1,.56,3.78,26.64,26.64,0,0,1,.2,3.64,31.65,31.65,0,0,1,0,3.39c-.08,1.07-.14,2.09-.21,3a20.42,20.42,0,0,1-.26,2.26,33.72,33.72,0,0,0,16-20.27C76.07,45,47.2,12.42,47.2,12.42Z"/><path class="cls-2" d="M49.21,29.59c-.17-2.46-.5-4.73-.71-6.76-.1-.87-.19-1.67-.29-2.43-.71,7-5.67,17.42-25.75,26.36-18,8-31.61,26.62-14.88,53.14a15.64,15.64,0,0,0,5.93,6.19c.05-.6.13-1.28.24-2.06A44.69,44.69,0,0,1,15,98.77a58.56,58.56,0,0,1,2.58-6.54c1.09-2.33,2.42-4.78,3.92-7.31s3.24-5.09,5.08-7.7,3.82-5.23,5.89-7.84l6.28-7.82a63,63,0,0,0,5.58-7.8A32.34,32.34,0,0,0,48,45.64a30.06,30.06,0,0,0,1.38-8.23A55.69,55.69,0,0,0,49.21,29.59Z"/><path class="cls-2" d="M49.7,97.36c-.07-.92-.15-1.91-.23-3A30.54,30.54,0,0,0,49,91.14a24.58,24.58,0,0,0-.7-3.41,24.7,24.7,0,0,0-1-3.4l-.61-1.66-.76-1.56a21.37,21.37,0,0,0-1.68-2.85,19.86,19.86,0,0,0-1.91-2.32l-1-1-1-.77a13.49,13.49,0,0,0-1.81-1.14,10.36,10.36,0,0,0-1.45-.65l-.4-.13-.3.34L30.15,80c-2,2.38-3.83,4.77-5.55,7S21.36,91.48,20,93.57a53.53,53.53,0,0,0-5.38,10.69c-.28.8-.5,1.5-.68,2.11.26.17.52.33.81.49,7.84.69,22.9,0,35-6.9v-.09A24.61,24.61,0,0,0,49.7,97.36Z"/><path class="cls-3" d="M186.59,148.86l-9-12.25a1,1,0,0,1,.19-1.29.88.88,0,0,1,1.3.15L187.47,147l8.4-11.48a.86.86,0,0,1,1.29-.15.91.91,0,0,1,.2,1.29l-8.93,12.18v12a.9.9,0,0,1-.92.91.94.94,0,0,1-.92-.91V148.86Z"/><path class="cls-3" d="M205.68,143a9.36,9.36,0,1,1-8.86,9.35C196.82,147.26,200.79,143,205.68,143Zm0,16.87a7.55,7.55,0,1,0-7-7.52A7.32,7.32,0,0,0,205.68,159.85Z"/><path class="cls-3" d="M220.56,143.86a.92.92,0,0,1,1.83,0v10.19a5.77,5.77,0,1,0,11.53,0V143.86a.93.93,0,0,1,.91-.91.91.91,0,0,1,1,.91v10.19a7.62,7.62,0,1,1-15.23,0V143.86Z"/><path class="cls-3" d="M244.33,143.94a.92.92,0,0,1,1-.92.9.9,0,0,1,.88.92v4.12a2.68,2.68,0,0,1,.26-.46c1.41-2.21,3.89-4.58,7.48-4.58a.91.91,0,0,1,.92.92.93.93,0,0,1-.92.91,6.76,6.76,0,0,0-5.42,3.06,16.62,16.62,0,0,0-2.25,4.35.59.59,0,0,0-.07.3v8.2a.9.9,0,0,1-.88.92.91.91,0,0,1-1-.92V143.94Z"/><path class="cls-3" d="M287.49,158.06a8.88,8.88,0,0,1-7.17,3.62,9.36,9.36,0,0,1,0-18.7,8.93,8.93,0,0,1,7.17,3.67V135.89a.94.94,0,0,1,1-.92.93.93,0,0,1,.91.92v24.88a.93.93,0,0,1-.91.91.94.94,0,0,1-1-.91Zm0-5.38v-.61a7.44,7.44,0,1,0,0,.61Z"/><path class="cls-3" d="M313.41,143.9v16.87a.92.92,0,0,1-1.84,0V158a8.72,8.72,0,0,1-7,3.7,9.36,9.36,0,0,1,0-18.7,8.69,8.69,0,0,1,7,3.67V143.9a.92.92,0,0,1,1.84,0Zm-1.84,8.43a7,7,0,1,0-7,7.52A7.3,7.3,0,0,0,311.57,152.33Z"/><path class="cls-3" d="M321.38,137.8a.94.94,0,0,1,1.87,0v.87a.94.94,0,1,1-1.87,0Zm0,6.1a.94.94,0,0,1,1.87,0v16.87a.94.94,0,0,1-1.87,0Z"/><path class="cls-3" d="M331.53,135.89a.94.94,0,0,1,1.87,0v24.88a.94.94,0,0,1-1.87,0Z"/><path class="cls-3" d="M341.68,143.86a.89.89,0,0,1,.88-.88.91.91,0,0,1,1,.88V154a5.72,5.72,0,0,0,5.72,5.77A5.79,5.79,0,0,0,355,154V143.86a.66.66,0,0,1,.15-.45s0-.08,0-.12,0,0,.08,0a.67.67,0,0,1,.34-.23h.07s.08,0,.12,0h.23a2.29,2.29,0,0,1,.46.2,1,1,0,0,1,.23.3.82.82,0,0,1,.11.38V160.2A8.8,8.8,0,0,1,348,169a9.25,9.25,0,0,1-3.85-.88,1,1,0,0,1-.39-1.22,1,1,0,0,1,1.19-.46,6.86,6.86,0,0,0,3.05.73,7,7,0,0,0,7.06-6.95V159a7.58,7.58,0,0,1-13.36-5V143.86Z"/><path class="cls-3" d="M392.09,158.06a8.88,8.88,0,0,1-7.17,3.62,9.36,9.36,0,0,1,0-18.7,8.93,8.93,0,0,1,7.17,3.67V135.89a.94.94,0,0,1,1-.92.93.93,0,0,1,.91.92v24.88a.93.93,0,0,1-.91.91.94.94,0,0,1-1-.91Zm0-5.38v-.61a7.44,7.44,0,1,0,0,.61Z"/><path class="cls-3" d="M410.3,143a9.36,9.36,0,0,1,0,18.7c-4.89,0-8.85-4.27-8.85-9.35S405.41,143,410.3,143Zm0,16.87a7.55,7.55,0,1,0-7-7.52A7.32,7.32,0,0,0,410.3,159.85Z"/><path class="cls-3" d="M424.88,157.79a.9.9,0,0,1,1.29-.11,10,10,0,0,0,5.73,2.17,5.68,5.68,0,0,0,3.55-1.14,2.85,2.85,0,0,0,1.41-2.29,2.94,2.94,0,0,0-1.34-2.29,9.31,9.31,0,0,0-4-1.38l-.08,0a10.65,10.65,0,0,1-4.24-1.46,3.89,3.89,0,0,1-2-3.35,4.65,4.65,0,0,1,2-3.67,8.07,8.07,0,0,1,4.58-1.26,10,10,0,0,1,5.57,2,1,1,0,0,1,.27,1.29.92.92,0,0,1-1.26.27c-1.37-.91-2.74-1.87-4.58-1.87a5.64,5.64,0,0,0-3.55,1.07,2.81,2.81,0,0,0-1.18,2.14,2.27,2.27,0,0,0,1.07,1.87,9.36,9.36,0,0,0,3.81,1.29h.08a13,13,0,0,1,4.54,1.53,4.67,4.67,0,0,1,2.1,3.82,4.75,4.75,0,0,1-2.14,3.77,7.56,7.56,0,0,1-4.65,1.49A11.38,11.38,0,0,1,425,159,.85.85,0,0,1,424.88,157.79Z"/><path class="cls-3" d="M443.62,152.37a9,9,0,1,1,18.08-.68v.15a.87.87,0,0,1-.91.84H445.45a7.35,7.35,0,0,0,7.25,7.17,7,7,0,0,0,6-3.39.89.89,0,0,1,1.22-.31,1,1,0,0,1,.3,1.3,8.92,8.92,0,0,1-7.55,4.23A9.19,9.19,0,0,1,443.62,152.37Zm1.94-1.49h14.16a7.21,7.21,0,0,0-7-6.06A7.3,7.3,0,0,0,445.56,150.88Z"/><path class="cls-3" d="M487.61,143a9.36,9.36,0,0,1,0,18.7c-4.88,0-8.85-4.27-8.85-9.35S482.73,143,487.61,143Zm0,16.87a7.55,7.55,0,1,0-7-7.52A7.32,7.32,0,0,0,487.61,159.85Z"/><path class="cls-3" d="M510.4,136a.93.93,0,0,1-.92.92,2.91,2.91,0,0,0-2.36.72,4.6,4.6,0,0,0-.77,3.1v2H509a.94.94,0,0,1,.95.91,1,1,0,0,1-.95,1h-2.64V160.8a.93.93,0,0,1-1.86,0V144.55H502a.94.94,0,0,1,0-1.87h2.49v-2a6.58,6.58,0,0,1,1.22-4.35,4.92,4.92,0,0,1,3.77-1.34A.94.94,0,0,1,510.4,136Z"/><path class="cls-3" d="M533.68,161.53a.66.66,0,0,1-.38-.42l-7-16.71a.93.93,0,0,1,.46-1.18.9.9,0,0,1,1.19.49l6.22,14.73,4.31-10.26a1,1,0,0,1,1.79,0l4.31,10.26,6.19-14.73a.91.91,0,0,1,1.68.69l-7,16.63a1,1,0,0,1-.34.46.79.79,0,0,1-.46.19h-.19a.86.86,0,0,1-.73-.57l0,0-4.35-10.34L535,161a.11.11,0,0,0,0,.07.9.9,0,0,1-.8.57,1.09,1.09,0,0,1-.35-.07A.19.19,0,0,1,533.68,161.53Z"/><path class="cls-3" d="M556.65,152.37a9.05,9.05,0,0,1,18.09-.68v.15a.87.87,0,0,1-.92.84H558.48a7.36,7.36,0,0,0,7.25,7.17,7,7,0,0,0,6-3.39.89.89,0,0,1,1.22-.31,1,1,0,0,1,.31,1.3,8.92,8.92,0,0,1-7.56,4.23A9.19,9.19,0,0,1,556.65,152.37Zm2-1.49h14.15a7.21,7.21,0,0,0-7-6.06A7.28,7.28,0,0,0,558.6,150.88Z"/><path class="cls-3" d="M581.49,135.89a.94.94,0,0,1,1.87,0v24.88a.94.94,0,0,1-1.87,0Z"/><path class="cls-3" d="M591,135.89a.93.93,0,0,1,.91-.92.94.94,0,0,1,1,.92v24.88a.94.94,0,0,1-1,.91.93.93,0,0,1-.91-.91Z"/><path class="cls-3" d="M613.59,150.62a5.76,5.76,0,0,0-5.76-5.76,5.85,5.85,0,0,0-5.8,5.76v10.3a.9.9,0,0,1-.19.42.82.82,0,0,1-.69.34h-.23a1,1,0,0,1-.61-.49.15.15,0,0,1,0-.12.1.1,0,0,0,0-.07V143.94a.91.91,0,0,1,.92-.92.9.9,0,0,1,.88.92v1.79a7.58,7.58,0,0,1,13.39,4.89v10.15a.92.92,0,0,1-1.83,0V150.62Z"/><path class="cls-3" d="M622.29,152.37a9.05,9.05,0,0,1,18.09-.68v.15a.87.87,0,0,1-.92.84H624.12a7.36,7.36,0,0,0,7.25,7.17,7,7,0,0,0,6-3.39.89.89,0,0,1,1.22-.31,1,1,0,0,1,.31,1.3,8.92,8.92,0,0,1-7.56,4.23A9.19,9.19,0,0,1,622.29,152.37Zm2-1.49h14.15a7.21,7.21,0,0,0-7-6.06A7.28,7.28,0,0,0,624.24,150.88Z"/><path class="cls-3" d="M645.57,157.79a.91.91,0,0,1,1.3-.11,10,10,0,0,0,5.72,2.17,5.68,5.68,0,0,0,3.55-1.14,2.82,2.82,0,0,0,1.41-2.29,3,3,0,0,0-1.33-2.29,9.37,9.37,0,0,0-4-1.38l-.08,0a10.6,10.6,0,0,1-4.23-1.46,3.88,3.88,0,0,1-2-3.35,4.66,4.66,0,0,1,2-3.67,8.05,8.05,0,0,1,4.58-1.26,10,10,0,0,1,5.57,2,1,1,0,0,1,.26,1.29.91.91,0,0,1-1.26.27c-1.37-.91-2.74-1.87-4.57-1.87a5.6,5.6,0,0,0-3.55,1.07,2.79,2.79,0,0,0-1.19,2.14,2.29,2.29,0,0,0,1.07,1.87,9.36,9.36,0,0,0,3.82,1.29h.07a12.85,12.85,0,0,1,4.54,1.53,4.67,4.67,0,0,1,2.1,3.82,4.76,4.76,0,0,1-2.13,3.77,7.61,7.61,0,0,1-4.66,1.49,11.4,11.4,0,0,1-6.91-2.67A.86.86,0,0,1,645.57,157.79Z"/><path class="cls-3" d="M664,157.79a.91.91,0,0,1,1.3-.11,10,10,0,0,0,5.73,2.17,5.67,5.67,0,0,0,3.54-1.14,2.83,2.83,0,0,0,1.42-2.29,3,3,0,0,0-1.34-2.29,9.37,9.37,0,0,0-4-1.38l-.07,0a10.65,10.65,0,0,1-4.24-1.46,3.89,3.89,0,0,1-2-3.35,4.65,4.65,0,0,1,2-3.67,8.07,8.07,0,0,1,4.58-1.26,10,10,0,0,1,5.57,2,1,1,0,0,1,.27,1.29.92.92,0,0,1-1.26.27c-1.38-.91-2.75-1.87-4.58-1.87a5.6,5.6,0,0,0-3.55,1.07,2.81,2.81,0,0,0-1.18,2.14,2.27,2.27,0,0,0,1.07,1.87,9.3,9.3,0,0,0,3.81,1.29h.08a13,13,0,0,1,4.54,1.53,4.67,4.67,0,0,1,2.1,3.82,4.75,4.75,0,0,1-2.14,3.77,7.59,7.59,0,0,1-4.66,1.49,11.34,11.34,0,0,1-6.9-2.67A.86.86,0,0,1,664,157.79Z"/></g></g></svg>